<?xml version="1.0" encoding="UTF-8"?>
<svg xmlns="http://www.w3.org/2000/svg" xmlns:xlink="http://www.w3.org/1999/xlink" viewBox="0 0 385.33 100.23">
  <defs>
    <style>
      .n {
        fill: #fff;
      }

      .o {
        fill: url(#l);
      }

      .p {
        isolation: isolate;
      }

      .q {
        fill: url(#f);
      }

      .r {
        fill: url(#i);
      }

      .s {
        fill: url(#g);
        mix-blend-mode: overlay;
      }

      .t {
        fill: url(#d);
      }

      .u {
        fill: url(#e);
      }

      .v {
        fill: url(#m);
        opacity: .32;
      }

      .w {
        fill: url(#h);
        opacity: .42;
      }

      .x {
        fill: url(#j);
      }

      .y {
        fill: url(#k);
      }
    </style>
    <linearGradient id="d" x1="23.73" y1="36.08" x2="64.63" y2="36.08" gradientTransform="matrix(1, 0, 0, 1, 0, 0)" gradientUnits="userSpaceOnUse">
      <stop offset="0" stop-color="#8a0bff"/>
      <stop offset="1" stop-color="#2a0056"/>
    </linearGradient>
    <linearGradient id="e" x1="17.53" y1="24.4" x2="52.62" y2="45.41" gradientTransform="matrix(1, 0, 0, 1, 0, 0)" gradientUnits="userSpaceOnUse">
      <stop offset="0" stop-color="#8a0bff" stop-opacity="0"/>
      <stop offset="1" stop-color="#2a0056"/>
    </linearGradient>
    <linearGradient id="f" x1="50.24" y1="72.15" x2="50.24" y2="5.32" gradientTransform="matrix(1, 0, 0, 1, 0, 0)" gradientUnits="userSpaceOnUse">
      <stop offset="0" stop-color="#a553ff"/>
      <stop offset="1" stop-color="#ae38ff"/>
    </linearGradient>
    <linearGradient id="g" x1="47.19" y1="41.05" x2="74.57" y2="49.92" gradientTransform="matrix(1, 0, 0, 1, 0, 0)" gradientUnits="userSpaceOnUse">
      <stop offset="0" stop-color="#af53ff"/>
      <stop offset=".16" stop-color="#ae4dff" stop-opacity=".8"/>
      <stop offset=".39" stop-color="#ae45ff" stop-opacity=".52"/>
      <stop offset=".6" stop-color="#ae3fff" stop-opacity=".29"/>
      <stop offset=".78" stop-color="#ae3bff" stop-opacity=".13"/>
      <stop offset=".92" stop-color="#ae38ff" stop-opacity=".04"/>
      <stop offset="1" stop-color="#ae38ff" stop-opacity="0"/>
    </linearGradient>
    <linearGradient id="h" x1="29.24" y1="41.77" x2="65.53" y2="59.62" gradientTransform="matrix(1, 0, 0, 1, 0, 0)" gradientUnits="userSpaceOnUse">
      <stop offset="0" stop-color="#8a0bff"/>
      <stop offset="1" stop-color="#2a0056" stop-opacity="0"/>
    </linearGradient>
    <linearGradient id="i" x1="0" y1="64.15" x2="40.9" y2="64.15" gradientTransform="matrix(1, 0, 0, 1, 0, 0)" gradientUnits="userSpaceOnUse">
      <stop offset="0" stop-color="#3d0056"/>
      <stop offset="1" stop-color="#ff0ba2"/>
    </linearGradient>
    <linearGradient id="j" x1="19.72" y1="54.89" x2="43.79" y2="87.96" gradientTransform="matrix(1, 0, 0, 1, 0, 0)" gradientUnits="userSpaceOnUse">
      <stop offset="0" stop-color="#3d0056"/>
      <stop offset="1" stop-color="#e33fc5"/>
    </linearGradient>
    <linearGradient id="k" x1="14.39" y1="94.91" x2="14.39" y2="28.08" gradientTransform="matrix(1, 0, 0, 1, 0, 0)" gradientUnits="userSpaceOnUse">
      <stop offset="0" stop-color="#df38ff"/>
      <stop offset="1" stop-color="#ff39ff"/>
    </linearGradient>
    <linearGradient id="l" x1="-7.78" y1="46.66" x2="41.56" y2="69.26" gradientTransform="matrix(1, 0, 0, 1, 0, 0)" gradientUnits="userSpaceOnUse">
      <stop offset="0" stop-color="#9e0082"/>
      <stop offset="1" stop-color="#ff39ff" stop-opacity="0"/>
    </linearGradient>
    <linearGradient id="m" x1="216.44" y1="105.92" x2="252.73" y2="123.77" gradientTransform="translate(251.83 164.38) rotate(-180)" xlink:href="#h"/>
  </defs>
  <g style="isolation: isolate;">
    <g id="a" data-name="Layer 1"/>
    <g id="b" data-name="Layer 2">
      <g id="c" data-name="OBJECTS">
        <g>
          <g>
            <g>
              <path d="M35.52,0h-11.79l24.24,47.39-12.12,24.76h14.27c2.13,0,4.08-1.21,5.02-3.13l8.54-17.45c1.29-2.63,1.26-5.71-.07-8.32L44.21,5.32c-1.67-3.26-5.03-5.32-8.69-5.32Z" style="fill: url(#d);"/>
              <path d="M35.52,0h-11.79l24.24,47.39-12.12,24.76h14.27c2.13,0,4.08-1.21,5.02-3.13l8.54-17.45c1.29-2.63,1.26-5.71-.07-8.32L44.21,5.32c-1.67-3.26-5.03-5.32-8.69-5.32Z" style="fill: url(#e);"/>
              <path d="M44.21,5.32c9.66,18.89,10.42,28.49,3.76,42.08l-12.12,24.76h14.27c2.13,0,4.08-1.21,5.02-3.13l8.54-17.45c1.29-2.63,1.26-5.71-.07-8.32L44.21,5.32Z" style="fill: url(#f);"/>
              <path d="M44.21,5.32c9.66,18.89,10.42,28.49,3.76,42.08l-12.12,24.76h14.27c2.13,0,4.08-1.21,5.02-3.13l8.54-17.45c1.29-2.63,1.26-5.71-.07-8.32L44.21,5.32Z" style="fill: url(#g); mix-blend-mode: overlay;"/>
              <path d="M63.61,43.25l-5.47-10.7c.37,6.13-1.11,11.72-4.29,18.23l-10.47,21.38h6.74c2.13,0,4.08-1.21,5.02-3.13l8.54-17.45c1.29-2.63,1.26-5.71-.07-8.32Z" style="fill: url(#h); opacity: .42;"/>
            </g>
            <g>
              <path d="M29.11,100.23h11.79L16.66,52.83l12.12-24.76H14.51c-2.13,0-4.08,1.21-5.02,3.13L.95,48.65c-1.29,2.63-1.26,5.71,.07,8.32l19.4,37.93c1.67,3.26,5.03,5.32,8.69,5.32Z" style="fill: url(#i);"/>
              <path d="M29.11,100.23h11.79L16.66,52.83l12.12-24.76H14.51c-2.13,0-4.08,1.21-5.02,3.13L.95,48.65c-1.29,2.63-1.26,5.71,.07,8.32l19.4,37.93c1.67,3.26,5.03,5.32,8.69,5.32Z" style="fill: url(#j);"/>
              <path d="M20.42,94.91c-9.66-18.89-10.42-28.49-3.76-42.08l12.12-24.76H14.51c-2.13,0-4.08,1.21-5.02,3.13L.95,48.65c-1.29,2.63-1.26,5.71,.07,8.32l19.4,37.93Z" style="fill: url(#k);"/>
              <path d="M20.42,94.91c-9.66-18.89-10.42-28.49-3.76-42.08l12.12-24.76H14.51c-2.13,0-4.08,1.21-5.02,3.13L.95,48.65c-1.29,2.63-1.26,5.71,.07,8.32l19.4,37.93Z" style="fill: url(#l);"/>
              <path d="M1.02,56.98l5.47,10.7c-.37-6.13,1.11-11.72,4.29-18.23l10.47-21.38h-6.74c-2.13,0-4.08,1.21-5.02,3.13L.95,48.65c-1.29,2.63-1.26,5.71,.07,8.32Z" style="fill: url(#m); opacity: .32;"/>
            </g>
          </g>
          <g>
            <path d="M118.64,74.47h-9.06v-5h-1.87c-3.37,0-6.42-.43-9.15-1.28-2.73-.85-5.06-2.09-6.99-3.72s-3.43-3.64-4.47-6.06c-1.04-2.42-1.56-5.18-1.56-8.31s.52-5.89,1.56-8.31c1.04-2.41,2.53-4.43,4.47-6.06s4.27-2.86,6.99-3.72c2.73-.85,5.78-1.28,9.15-1.28h1.87v-5h9.06v5h1.87c3.37,0,6.42,.43,9.15,1.28,2.73,.85,5.06,2.09,6.99,3.72s3.42,3.64,4.47,6.06c1.04,2.42,1.56,5.18,1.56,8.31s-.52,5.89-1.56,8.31c-1.04,2.42-2.53,4.43-4.47,6.06s-4.27,2.86-6.99,3.72c-2.73,.85-5.78,1.28-9.15,1.28h-1.87v5Zm-9.06-39.04h-1.87c-1.71,0-3.32,.27-4.84,.81-1.52,.54-2.84,1.4-3.97,2.56-1.13,1.17-2.02,2.68-2.69,4.53s-1,4.11-1,6.78,.33,4.92,1,6.78c.67,1.85,1.56,3.36,2.69,4.53,1.12,1.17,2.44,2.02,3.97,2.56,1.52,.54,3.13,.81,4.84,.81h1.87v-29.36Zm9.06,29.36h1.87c1.71,0,3.32-.27,4.84-.81,1.52-.54,2.84-1.39,3.97-2.56,1.13-1.16,2.02-2.67,2.69-4.53,.66-1.85,1-4.11,1-6.78s-.33-4.92-1-6.78c-.67-1.85-1.56-3.36-2.69-4.53-1.12-1.16-2.45-2.02-3.97-2.56s-3.13-.81-4.84-.81h-1.87v29.36Z" style="fill: #fff;"/>
            <path d="M186.72,28.25l17.8,43.72h-9l-4.12-10.62h-23.73l-4.12,10.62h-8.99l17.8-43.72h14.37Zm-16.86,28.42h19.36l-9.37-23.11h-.62l-9.37,23.11Z" style="fill: #fff;"/>
            <path d="M243.86,45.74c3.21,0,6.02,.31,8.43,.94,2.41,.63,4.43,1.52,6.06,2.69,1.62,1.17,2.84,2.55,3.65,4.15,.81,1.6,1.22,3.38,1.22,5.34s-.41,3.74-1.22,5.34c-.81,1.6-2.03,2.99-3.65,4.15-1.62,1.17-3.64,2.06-6.06,2.69-2.42,.62-5.23,.94-8.43,.94h-23.11V28.25h37.47v4.68h-28.42v12.8h14.05Zm-14.05,4.68v16.86h14.05c3,0,5.36-.74,7.09-2.22,1.73-1.48,2.59-3.55,2.59-6.22s-.86-4.74-2.59-6.21-4.09-2.22-7.09-2.22h-14.05Z" style="fill: #fff;"/>
            <path d="M308.19,28.25l17.8,43.72h-9l-4.12-10.62h-23.73l-4.12,10.62h-8.99l17.8-43.72h14.37Zm-16.86,28.42h19.36l-9.37-23.11h-.62l-9.37,23.11Z" style="fill: #fff;"/>
            <path d="M339.11,68.23h1.87c1.25,0,2.35-.52,3.31-1.56,.96-1.04,1.52-2.81,1.69-5.31l2.19-33.1h37.16v43.72h-9.06V32.94h-19.67l-1.87,28.42c-.29,4.08-1.43,7.03-3.4,8.84-1.98,1.81-4.69,2.72-8.15,2.72-1.08,0-2.04-.1-2.87-.31-.46-.08-.85-.19-1.19-.31v-4.06Z" style="fill: #fff;"/>
          </g>
        </g>
      </g>
    </g>
  </g>
</svg>